<?xml version="1.0" encoding="UTF-8" standalone="no"?><!DOCTYPE svg PUBLIC "-//W3C//DTD SVG 1.1//EN" "http://www.w3.org/Graphics/SVG/1.1/DTD/svg11.dtd"><svg width="100%" height="100%" viewBox="0 0 22 13" version="1.1" xmlns="http://www.w3.org/2000/svg" xmlns:xlink="http://www.w3.org/1999/xlink" xml:space="preserve" xmlns:serif="http://www.serif.com/" style="fill-rule:evenodd;clip-rule:evenodd;stroke-linejoin:round;stroke-miterlimit:2;"><path d="M22,4.387l-4.813,7.313l-4.812,-7.313l2.887,0l0,-4.387l3.85,-0l0,4.387l2.888,0Zm-22,8.613l7.562,-10.4l7.563,10.4l-3.618,-0c-0.669,-1.363 -2.164,-2.311 -3.9,-2.311c-1.737,-0 -3.231,0.948 -3.901,2.311l-3.706,-0Zm5.761,-4.787c-0,0.911 0.806,1.65 1.801,1.65c0.994,0 1.8,-0.739 1.8,-1.65c0,-0.912 -0.806,-1.651 -1.8,-1.651c-0.995,-0 -1.801,0.739 -1.801,1.651Z" style="fill:#fff;"/></svg>